<svg xmlns="http://www.w3.org/2000/svg" xmlns:xlink="http://www.w3.org/1999/xlink" width="160" height="70" viewBox="0 0 160 70">
  <defs>
    <clipPath id="clip-path">
      <rect id="Rectangle_163" data-name="Rectangle 163" width="160" height="70" transform="translate(0.152 -0.113)" fill="#fff"/>
    </clipPath>
    <clipPath id="clip-path-2">
      <rect id="Rectangle_162" data-name="Rectangle 162" width="160" height="70" transform="translate(0 -0.001)" fill="#fff"/>
    </clipPath>
  </defs>
  <g id="Group_27" data-name="Group 27" transform="translate(-0.152 0.113)" clip-path="url(#clip-path)">
    <g id="Group_26" data-name="Group 26" transform="translate(0.152 -0.113)">
      <g id="Group_25" data-name="Group 25" transform="translate(0)" clip-path="url(#clip-path-2)">
        <g id="Group_24" data-name="Group 24">
          <g id="Group_23" data-name="Group 23" clip-path="url(#clip-path-2)">
            <path id="Path_5" data-name="Path 5" d="M299.982,39.424C296.8,41.572,293.6,43.7,290.449,45.9c-.358.25-.479.9-.619,1.391-.9,3.14-3.36,5.577-5.928,5.608a3.045,3.045,0,0,1-2.1-.907c-.288-.33-.091-1.409.251-1.894a7.4,7.4,0,0,1,2.235-2.151c2.964-1.7,3.588-4.639,1.393-7.345-.671-.827-1.447-1.568-2.093-2.261-1.954,2.51-3.8,5.105-5.891,7.475a17.416,17.416,0,0,1-3.93,2.985,2.3,2.3,0,0,1-3.477-1.012,9.629,9.629,0,0,1-1.257-4.362c.131-4.382.6-8.753.959-13.447a11.211,11.211,0,0,0-2.566,1.446,34.771,34.771,0,0,0-9.051,14.1c-.278.847-.538,1.7-.839,2.537a3.065,3.065,0,0,1-.5.648c-1.375-1.087-2.5-2.11-2.019-4.135a50.05,50.05,0,0,0,1.212-7.958c-1.833,2.159-3.674,4.312-5.494,6.481-.688.82-1.278,1.725-2,2.516-1.865,2.053-4.639,1.573-5.343-1.146-.456-1.762-.139-3.737-.078-5.614a21.226,21.226,0,0,1,.5-2.8c-2.223,1.386-4.161,2.516-5.995,3.8a2.7,2.7,0,0,0-.735,1.685c-.726,4.641-1.173,9.338-2.151,13.922A30.178,30.178,0,0,1,229.4,67.913a11.837,11.837,0,0,1-6.658,4.5c-3.049.735-6.3-1.5-6.132-4.641a16.932,16.932,0,0,1,1.665-6.648,69.978,69.978,0,0,1,14.6-19.682,4.447,4.447,0,0,0,1.234-2.234,21.329,21.329,0,0,0,.383-5.841c-.826.946-1.613,1.93-2.485,2.83-1.692,1.745-3.357,3.53-5.181,5.128-.978.856-2.239,1.413-3.564.362a3.2,3.2,0,0,1-1.156-3.95,16.327,16.327,0,0,1,5.111-7.591c1.708-1.327,3.96-.914,4.742.764a5.45,5.45,0,0,1,.166,1.307c-1.878-1.692-2.984-.5-3.99.683a17.824,17.824,0,0,0-3.818,6.669l.378.372a44.575,44.575,0,0,0,3.826-3.237c1.888-1.977,3.575-4.146,5.439-6.148.49-.526,1.554-1.193,1.945-.993a3.458,3.458,0,0,1,1.785,2.091,26.888,26.888,0,0,1-.1,4.8c-.012.339,0,.679,0,1.154,4.133-1.459,7.859-3.176,9.491-7.711l.524.408-.364,2.062,1.236-1.61.539.042a5.544,5.544,0,0,1,.066,1.664c-.895,3.263-1.886,6.5-2.78,9.762a11.384,11.384,0,0,0-.17,2.223l.426.265c.919-.872,1.879-1.7,2.749-2.622,2-2.115,3.867-4.376,5.974-6.38a11.666,11.666,0,0,0,3.335-6.918c.143-.856.026-2.085,1.307-1.873a2.117,2.117,0,0,1,1.919,2.547c-.29,1.51-.837,2.97-1.274,4.451-.2.666-.4,1.329-.6,1.994l.428.221c.83-1.186,1.6-2.415,2.5-3.544a23.426,23.426,0,0,1,2.763-2.993c1.371-1.209,2.928-1.838,4.652-.5.889-3.219,1.632-6.334,2.622-9.367a74.544,74.544,0,0,1,2.87-7.1,5.715,5.715,0,0,1,1.658-2.28,3.835,3.835,0,0,1,2.549-.649c.34.045.858,1.407.712,2.034-.9,3.863-1.881,7.71-2.982,11.519-1.749,6.045-3.732,12.025-5.353,18.1-.48,1.8-.074,3.84-.074,5.769l.555.35a15.249,15.249,0,0,0,3.187-2.26c2.139-2.541,4.088-5.245,6.056-7.925a2.559,2.559,0,0,0,.331-1.491c-.116-4.349,3.595-9.272,7.882-9.956a10.592,10.592,0,0,1,4.611.714,2.192,2.192,0,0,1,1.4,2.9c-.392,1.407-.661,2.972-2.968,3.085.173-.79.257-1.446.462-2.061.465-1.392-.249-2.445-1.7-2.227a3.778,3.778,0,0,0-2.2,1.007,40.88,40.88,0,0,0-3.527,4.857c-.984,1.575-.437,3.046.644,4.432,1.192,1.529,2.283,3.137,3.509,4.837,1.535-1.033,3.28-2.21,5.028-3.383,1.328-.89,2.63-1.874,4.39-1.308ZM233.592,43.7a13.011,13.011,0,0,0-1.2.976,68.107,68.107,0,0,0-12.561,18.507,13.586,13.586,0,0,0-1.171,4.622c-.154,2.709.933,3.327,3.375,2.2,3.2-1.472,5.176-4.091,6.623-7.182A59.955,59.955,0,0,0,233.592,43.7m46.361-31.107-.747-.24a73,73,0,0,0-5.415,17.612l.445.143,5.717-17.515" transform="translate(-139.603 -5.877)" fill="#fff"/>
            <path id="Path_6" data-name="Path 6" d="M53.322,78.551a45.436,45.436,0,0,0,3.287-4.591c1.084-1.991,2.605-2.355,4.7-1.813V87.274h-2.7v-10.3l-.408-.185-4.964,6.461L48.2,76.4V87.237H45.268V72.156c2.028-.5,3.6-.263,4.712,1.718a52.477,52.477,0,0,0,3.341,4.678" transform="translate(-29.477 -45.881)" fill="#fff"/>
            <path id="Path_7" data-name="Path 7" d="M157.805,82.361l4.4,5.029c-1.829.317-3.371.626-4.518-1.1-.522-.787-1.308-1.4-1.825-2.186-1.029-1.566-2.406-1.931-4.305-1.4v4.784H148.8V72.4a86.838,86.838,0,0,1,8.747.071,4.543,4.543,0,0,1,3.9,4.285c.256,2.36-.678,3.984-2.952,5.149-.205.105-.388.255-.688.455m-6.2-2.611c1.714,0,3.249.062,4.776-.019a1.93,1.93,0,0,0,2.035-2.193c-.133-.88-.916-2.2-1.612-2.347a26.058,26.058,0,0,0-5.2-.111Z" transform="translate(-96.022 -46.137)" fill="#fff"/>
            <path id="Path_8" data-name="Path 8" d="M112.827,87.307c-2.035.442-3.449.338-4.045-1.736a1.914,1.914,0,0,0-1.43-.92c-1.355-.129-2.735.028-4.1-.063-1.766-.118-3.128.05-3.891,2.1-.24.644-1.907.755-2.921,1.109l-.328-.507c.455-1.065.9-2.136,1.367-3.194C99.1,80.453,100.7,76.8,102.4,73.2a2.123,2.123,0,0,1,1.518-1.034c.781-.038,2.071.121,2.3.6,2.283,4.757,4.393,9.6,6.607,14.54m-5.648-5.574-2.754-6.3-2.7,6.3Z" transform="translate(-62.159 -46.034)" fill="#fff"/>
            <path id="Path_9" data-name="Path 9" d="M0,83.53l2.669-1.4a4.953,4.953,0,0,0,6.112,2.054,2.777,2.777,0,0,0,1.678-1.9c0-.651-.945-1.611-1.682-1.888-1.366-.514-2.905-.544-4.33-.932-2.257-.615-3.395-2.019-3.436-3.995-.037-1.8,1.132-3.3,3.187-4.047,3.081-1.115,7.642-.277,8.7,2.616l-2.014,1.137c-1.5-1.237-3.186-2.166-5.159-1.416-.705.268-1.2,1.1-1.786,1.677.574.523,1.066,1.295,1.738,1.514,1.34.437,2.8.489,4.172.847,2.448.64,3.571,2.014,3.624,4.216A4.4,4.4,0,0,1,9.92,86.7a8.873,8.873,0,0,1-6.762-.373A18.414,18.414,0,0,1,0,83.53" transform="translate(-0.38 -45.257)" fill="#fff"/>
            <path id="Path_10" data-name="Path 10" d="M200.949,74.886H196.36V87.433H193.3V74.973h-4.672V72.3h12.322Z" transform="translate(-121.622 -46.125)" fill="#fff"/>
            <path id="Path_11" data-name="Path 11" d="M111.1,41.611V36.269c.978-.227,1.746-.423,1.73.945-.029,2.608-.008,5.216-.008,8.278-3.229-.855-3.8-4.193-6.239-5.769V45.1c-1.248.368-1.847.213-1.812-1.107.058-2.2-.006-4.4.035-6.594a4.487,4.487,0,0,1,.41-1.251c.508.207,1.178.275,1.5.646,1.383,1.605,2.664,3.3,3.981,4.96Z" transform="translate(-67.723 -22.862)" fill="#fff"/>
            <path id="Path_12" data-name="Path 12" d="M10.276,42.187l2.365,2.808c-1.71.416-1.674.382-2.855-.884-.821-.88-1.355-2.4-3.064-1.709C6.285,45.2,6.285,45.2,4.914,45.218V36.137c1.606,0,3.141-.095,4.658.028a2.808,2.808,0,0,1,2.689,2.229c.419,1.755-.365,2.977-1.984,3.792M6.663,37.4V41.01c1.4-.4,2.591-.695,3.726-1.136a1.758,1.758,0,0,0,.016-1.262c-1.126-.458-2.312-.769-3.742-1.207" transform="translate(-3.539 -22.858)" fill="#fff"/>
            <path id="Path_13" data-name="Path 13" d="M139.75,36.853c-.6,1.6-1.448.648-2.231.662a5.768,5.768,0,0,0-3.347.866,2.6,2.6,0,0,0-.309,3.719,4.931,4.931,0,0,0,3.019,1.356c1.094.116,1.908-.6,1.413-2-.659-.5-2.633.465-1.92-1.709h3.494c.643,3.165.365,4.2-1.31,4.994a5.19,5.19,0,0,1-5.894-1.118,5.261,5.261,0,0,1-.079-6.166,4.838,4.838,0,0,1,5.776-1.431,13.609,13.609,0,0,1,1.387.823" transform="translate(-84.985 -22.545)" fill="#fff"/>
            <path id="Path_14" data-name="Path 14" d="M37.358,45.4c-.565-.413-1.121-.84-1.7-1.236-.4-.275-.858-.764-1.24-.72-1.6.184-3.635-.975-4.6,1.439-.1.254-1.029.176-1.9.3,1.376-3.081,2.567-5.852,3.856-8.578a1.348,1.348,0,0,1,2.405-.024c1.288,2.728,2.474,5.5,3.7,8.261l-.519.559m-2.779-3.737-1.62-3.641-1.569,3.641Z" transform="translate(-18.323 -22.701)" fill="#fff"/>
            <path id="Path_15" data-name="Path 15" d="M68.634,42.589c.579.125,1.172.21,1.734.389.443.141.833.524,1.274.578,1.05.129,2.379.336,2.618-1.072.227-1.335-1.056-1.312-1.971-1.47-2.71-.467-3.782-1.42-3.5-3.127.265-1.614,2.132-2.588,4.475-2.137a11.717,11.717,0,0,1,2.581,1.18l-.161.743a11.817,11.817,0,0,1-1.729-.02c-.454-.068-.928-.525-1.31-.439a11.17,11.17,0,0,0-2.091.914,10.407,10.407,0,0,0,1.687,1.176,15.363,15.363,0,0,0,1.9.421,2.46,2.46,0,0,1,1.983,2.428,2.653,2.653,0,0,1-1.845,2.75,4.635,4.635,0,0,1-5.748-1.672l.1-.644" transform="translate(-44.43 -22.561)" fill="#fff"/>
            <path id="Path_16" data-name="Path 16" d="M60.918,45.067c-1.221.43-1.842.28-1.817-1.042.042-2.248-.031-4.5.055-6.745.015-.4.567-.777.871-1.165.3.338.843.668.852,1.014.072,2.65.04,5.3.04,7.938" transform="translate(-38.367 -22.866)" fill="#fff"/>
            <path id="Path_17" data-name="Path 17" d="M95.459,45.155c-.425-.336-1.206-.658-1.22-1.01-.1-2.716-.056-5.438-.056-8.158l.44-.359c.427.34,1.212.666,1.226,1.022.1,2.719.057,5.443.057,8.165l-.446.34" transform="translate(-60.911 -22.553)" fill="#fff"/>
            <path id="Path_18" data-name="Path 18" d="M310.48,50.076l-1.5,3.084a9.041,9.041,0,0,1-1.373-2.349,1.758,1.758,0,0,1,1.029-1.409c.53-.113,1.194.41,1.84.673" transform="translate(-198.095 -31.397)" fill="#fff"/>
          </g>
        </g>
      </g>
    </g>
  </g>
</svg>
